# ProBuilder 4.5.0
# https://unity3d.com/unity/features/worldbuilding/probuilder
# 24/05/2021 22:24:14

mtllib ./Cube.mtl
o Cube

g Cube
v 6.05 3.03466 1.554497
v 6.05 3.03466 0.5544966
v 6.05 7.931731 1.554497
v 6.05 7.931731 0.5544966
v 7.05 5.483195 1.554497
v 7.05 4.258928 1.554497
v 7.05 3.03466 1.554497
v 7.05 7.812198 1.554497
v 7.05 6.707463 1.554497
v 7.05 5.483195 0.5544966
v 7.05 6.707463 0.5544966
v 7.05 7.812198 0.5544966
v 7.05 3.03466 0.5544966
v 7.05 4.258928 0.5544966
v 7.05 3.03466 1.054497
v 7.05 4.258928 1.054497
v 7.05 4.258928 0.8044966
v 7.05 3.03466 0.8044966
v 7.05 5.483195 1.054497
v 7.05 5.483195 0.8044966
v 7.05 4.258928 1.304497
v 7.05 3.03466 1.304497
v 7.05 5.483195 1.304497
v 7.05 6.707463 1.304497
v 7.881586 6.707463 1.554497
v 7.881586 7.644729 1.554497
v 7.881586 7.644729 1.304497
v 7.881586 6.707463 1.304497
v 7.881586 7.644729 1.054497
v 7.881586 6.707463 1.054497
v 7.05 6.707463 1.054497
v 7.05 6.707463 0.8044966
v 7.881586 7.644729 0.8044966
v 7.881586 6.707463 0.8044966
v 7.881586 7.644729 0.5544966
v 7.881586 6.707463 0.5544966
v 7.05 7.812198 0.8044966
v 7.05 7.812198 1.054497
v 7.05 7.812198 1.304497

vt 0 0
vt -1 0
vt 0 4.897071
vt -1 4.897071
vt 0 2.448535
vt 0 1.224268
vt 0 4.777537
vt 0 3.672803
vt 1 4.897071
vt 1 0
vt 0.5 0
vt 0.5 1.224268
vt 0.75 1.224268
vt 0.75 0
vt 0.5 2.448535
vt 0.75 2.448535
vt 1 2.448535
vt 1 1.224268
vt 0.25 1.224268
vt 0.25 0
vt 0.25 2.448535
vt 0.25 3.672803
vt 0 4.610068
vt 0.25 4.610068
vt 0.5 4.610068
vt 0.5 3.672803
vt 0.75 3.672803
vt 0.75 4.610068
vt 1 4.610068
vt 1 3.672803
vt 1.574158 -1
vt 0.5670394 -1
vt 0.5670394 -0.75
vt 0.5670394 -0.5
vt 0.5670394 -0.25
vt 0.5670394 -7.457618E-09
vt 1.574158 -7.457618E-09
vt 0 -0.25
vt 0 -0.5
vt 0 -0.75
vt 0 -1
vt -1 -1
vt 0.8315848 -0.7500035
vt 0.8315848 -0.5000035
vt 0.943189 -0.75
vt 0.943189 -1
vt 0.09490788 -0.75
vt 0.09490788 -1
vt -0.8315859 4.610068
vt -0.8315859 3.672803
vt 0 -0.9999965
vt 0 -0.7499965
vt 0.8315859 -0.9999965
vt 0.8315859 -0.7499965
vt 0.943189 -0.5
vt 0.09490788 -0.5
vt 0 -0.4999965
vt 0 -0.2499965
vt 0.8315859 -0.4999965
vt 0.8315859 -0.2499965
vt 0.8315848 -0.2500035
vt 0.8315848 -3.502658E-06
vt 0.943189 -0.25
vt 0.09490788 -0.25
vt 0.943189 0
vt 0.09490788 0
vt 0.8315859 3.672803
vt 0.8315859 4.610068

vn -1 0 0
vn 0 0 1
vn 0 0 -1
vn 1 0 0
vn 0.1186886 0.9929315 0
vn 0 -1 0
vn 0.1974216 0.9803187 0

usemtl ProBuilderDefault
f 1/2/2 7/1/2 6/6/2
f 1/2/2 6/6/2 5/5/2
f 3/4/2 1/2/2 5/5/2
f 9/8/2 3/4/2 5/5/2
f 3/4/2 9/8/2 8/7/2
f 12/7/3 11/8/3 4/9/3
f 10/5/3 4/9/3 11/8/3
f 10/5/3 2/10/3 4/9/3
f 10/5/3 14/6/3 2/10/3
f 14/6/3 13/1/3 2/10/3
f 37/33/5 12/32/5 4/31/5
f 38/34/5 37/33/5 4/31/5
f 4/31/5 3/37/5 38/34/5
f 3/37/5 39/35/5 38/34/5
f 3/37/5 8/36/5 39/35/5
f 22/38/6 7/1/6 1/2/6
f 15/39/6 22/38/6 1/2/6
f 15/39/6 1/2/6 2/42/6
f 2/42/6 18/40/6 15/39/6
f 2/42/6 13/41/6 18/40/6
f 4/4/1 2/2/1 1/1/1
f 1/1/1 3/3/1 4/4/1
f 17/13/4 16/12/4 15/11/4
f 15/11/4 18/14/4 17/13/4
f 20/16/4 19/15/4 16/12/4
f 16/12/4 17/13/4 20/16/4
f 10/17/4 20/16/4 17/13/4
f 17/13/4 14/18/4 10/17/4
f 14/18/4 17/13/4 18/14/4
f 18/14/4 13/10/4 14/18/4
f 21/19/4 6/6/4 7/1/4
f 7/1/4 22/20/4 21/19/4
f 23/21/4 5/5/4 6/6/4
f 6/6/4 21/19/4 23/21/4
f 19/15/4 23/21/4 21/19/4
f 21/19/4 16/12/4 19/15/4
f 16/12/4 21/19/4 22/20/4
f 22/20/4 15/11/4 16/12/4
f 5/5/4 23/21/4 24/22/4
f 24/22/4 9/8/4 5/5/4
f 28/22/4 27/24/4 26/23/4
f 26/23/4 25/8/4 28/22/4
f 29/25/4 27/24/4 28/22/4
f 28/22/4 30/26/4 29/25/4
f 31/26/4 24/22/4 23/21/4
f 23/21/4 19/15/4 31/26/4
f 19/15/4 20/16/4 32/27/4
f 32/27/4 31/26/4 19/15/4
f 34/27/4 33/28/4 29/25/4
f 29/25/4 30/26/4 34/27/4
f 35/29/4 33/28/4 34/27/4
f 34/27/4 36/30/4 35/29/4
f 11/30/4 32/27/4 20/16/4
f 20/16/4 10/17/4 11/30/4
f 30/44/6 31/39/6 32/40/6
f 32/40/6 34/43/6 30/44/6
f 35/48/7 12/46/7 37/45/7
f 37/45/7 33/47/7 35/48/7
f 36/50/3 11/8/3 12/7/3
f 12/7/3 35/49/3 36/50/3
f 34/54/6 32/52/6 11/51/6
f 11/51/6 36/53/6 34/54/6
f 33/47/7 37/45/7 38/55/7
f 38/55/7 29/56/7 33/47/7
f 28/60/6 24/58/6 31/57/6
f 31/57/6 30/59/6 28/60/6
f 25/62/6 9/1/6 24/38/6
f 24/38/6 28/61/6 25/62/6
f 29/56/7 38/55/7 39/63/7
f 39/63/7 27/64/7 29/56/7
f 27/64/7 39/63/7 8/65/7
f 8/65/7 26/66/7 27/64/7
f 26/68/2 8/7/2 9/8/2
f 9/8/2 25/67/2 26/68/2

